<mxfile host="app.diagrams.net" modified="2022-03-10T01:35:07.992Z" agent="5.0 (Macintosh)" etag="NkO0UEAcbiUSJsusiYOo" version="17.1.0" type="github">
  <diagram id="_bXTvB_eD-3HRddHqAqS" name="Page-1">
    <mxGraphModel dx="1628" dy="667" grid="1" gridSize="10" guides="1" tooltips="1" connect="1" arrows="1" fold="1" page="1" pageScale="1" pageWidth="850" pageHeight="1100" math="0" shadow="0">
      <root>
        <mxCell id="0" />
        <mxCell id="1" parent="0" />
        <mxCell id="zIdspVR7MPh4aW7Ltfgc-5" value="" style="whiteSpace=wrap;html=1;rounded=0;labelBackgroundColor=none;labelBorderColor=none;fontFamily=Helvetica;fontSize=10;fontColor=#000066;strokeWidth=2;fillColor=#E6E8FF;" vertex="1" parent="1">
          <mxGeometry y="220" width="720" height="100" as="geometry" />
        </mxCell>
        <mxCell id="zIdspVR7MPh4aW7Ltfgc-7" value="&lt;div&gt;data_transfer&lt;/div&gt;" style="ellipse;whiteSpace=wrap;html=1;rounded=0;labelBackgroundColor=#FFFFFF;labelBorderColor=none;fontFamily=Helvetica;fontSize=10;fontColor=#000066;strokeWidth=2;fillColor=#FFFFFF;" vertex="1" parent="1">
          <mxGeometry x="255" y="230" width="240" height="80" as="geometry" />
        </mxCell>
        <mxCell id="zIdspVR7MPh4aW7Ltfgc-9" value="" style="whiteSpace=wrap;html=1;rounded=0;labelBackgroundColor=none;labelBorderColor=none;fontFamily=Helvetica;fontSize=10;fontColor=#000066;strokeWidth=2;fillColor=#E6E8FF;" vertex="1" parent="1">
          <mxGeometry y="320" width="720" height="100" as="geometry" />
        </mxCell>
        <mxCell id="zIdspVR7MPh4aW7Ltfgc-10" value="" style="whiteSpace=wrap;html=1;rounded=0;labelBackgroundColor=none;labelBorderColor=none;fontFamily=Helvetica;fontSize=10;fontColor=#000066;strokeWidth=2;fillColor=#E6E8FF;" vertex="1" parent="1">
          <mxGeometry y="420" width="720" height="100" as="geometry" />
        </mxCell>
        <mxCell id="zIdspVR7MPh4aW7Ltfgc-11" value="" style="whiteSpace=wrap;html=1;rounded=0;labelBackgroundColor=none;labelBorderColor=none;fontFamily=Helvetica;fontSize=10;fontColor=#000066;strokeWidth=2;fillColor=#E6E8FF;" vertex="1" parent="1">
          <mxGeometry y="520" width="720" height="100" as="geometry" />
        </mxCell>
        <mxCell id="zIdspVR7MPh4aW7Ltfgc-13" value="" style="rounded=0;whiteSpace=wrap;html=1;fillColor=#CFD7FF;" vertex="1" parent="1">
          <mxGeometry width="720" height="140" as="geometry" />
        </mxCell>
        <mxCell id="zIdspVR7MPh4aW7Ltfgc-14" value="&lt;b&gt;FDR Database&lt;/b&gt;" style="shape=cylinder3;whiteSpace=wrap;html=1;boundedLbl=1;backgroundOutline=1;size=15;strokeWidth=2;" vertex="1" parent="1">
          <mxGeometry x="450" y="27.5" width="210" height="85" as="geometry" />
        </mxCell>
        <mxCell id="zIdspVR7MPh4aW7Ltfgc-18" value="&lt;b&gt;RDF&lt;/b&gt;" style="shape=cylinder3;whiteSpace=wrap;html=1;boundedLbl=1;backgroundOutline=1;size=15;strokeWidth=2;" vertex="1" parent="1">
          <mxGeometry x="93.5" y="27.5" width="202" height="82.5" as="geometry" />
        </mxCell>
        <mxCell id="zIdspVR7MPh4aW7Ltfgc-22" value="okd: essweb-scholars-data-transfer-prod" style="text;html=1;align=left;verticalAlign=middle;resizable=0;points=[];autosize=1;strokeColor=none;fillColor=none;fontSize=10;fontStyle=1;fontColor=#000066;" vertex="1" parent="1">
          <mxGeometry x="2" y="220" width="210" height="20" as="geometry" />
        </mxCell>
        <mxCell id="zIdspVR7MPh4aW7Ltfgc-23" value="&lt;div align=&quot;left&quot;&gt;ads-postgres.oit.duke.edu&lt;/div&gt;" style="text;html=1;align=left;verticalAlign=middle;resizable=0;points=[];autosize=1;strokeColor=none;fillColor=none;fontSize=10;fontStyle=1;fontColor=#000066;" vertex="1" parent="1">
          <mxGeometry x="2" y="320" width="140" height="20" as="geometry" />
        </mxCell>
        <mxCell id="zIdspVR7MPh4aW7Ltfgc-24" value="staging table" style="shape=cylinder3;whiteSpace=wrap;html=1;boundedLbl=1;backgroundOutline=1;size=15;strokeWidth=2;" vertex="1" parent="1">
          <mxGeometry x="142" y="335" width="105" height="70" as="geometry" />
        </mxCell>
        <mxCell id="zIdspVR7MPh4aW7Ltfgc-25" value="&lt;div&gt;resources table&lt;/div&gt;" style="shape=cylinder3;whiteSpace=wrap;html=1;boundedLbl=1;backgroundOutline=1;size=15;strokeWidth=2;" vertex="1" parent="1">
          <mxGeometry x="307.5" y="335" width="105" height="70" as="geometry" />
        </mxCell>
        <mxCell id="zIdspVR7MPh4aW7Ltfgc-26" value="entity tables" style="shape=cylinder3;whiteSpace=wrap;html=1;boundedLbl=1;backgroundOutline=1;size=15;strokeWidth=2;" vertex="1" parent="1">
          <mxGeometry x="470" y="335" width="105" height="70" as="geometry" />
        </mxCell>
        <mxCell id="zIdspVR7MPh4aW7Ltfgc-27" value="" style="whiteSpace=wrap;html=1;rounded=0;labelBackgroundColor=none;labelBorderColor=none;fontFamily=Helvetica;fontSize=10;fontColor=#000066;strokeWidth=2;fillColor=#E6E8FF;" vertex="1" parent="1">
          <mxGeometry x="-1" y="620" width="720" height="110" as="geometry" />
        </mxCell>
        <mxCell id="zIdspVR7MPh4aW7Ltfgc-28" value="ScholarsUI" style="ellipse;whiteSpace=wrap;html=1;rounded=0;labelBackgroundColor=none;labelBorderColor=none;fontFamily=Helvetica;fontSize=10;fontColor=#000066;strokeWidth=2;fillColor=#FFFFFF;" vertex="1" parent="1">
          <mxGeometry x="239" y="635" width="240" height="80" as="geometry" />
        </mxCell>
        <mxCell id="zIdspVR7MPh4aW7Ltfgc-29" value="okd: essweb-scholars-ui" style="text;html=1;align=left;verticalAlign=middle;resizable=0;points=[];autosize=1;strokeColor=none;fillColor=none;fontSize=10;fontStyle=1;fontColor=#000066;" vertex="1" parent="1">
          <mxGeometry x="-1" y="620" width="130" height="20" as="geometry" />
        </mxCell>
        <mxCell id="zIdspVR7MPh4aW7Ltfgc-30" value="" style="endArrow=classic;html=1;rounded=0;fontFamily=Helvetica;fontSize=10;fontColor=#000066;curved=1;" edge="1" parent="1" source="zIdspVR7MPh4aW7Ltfgc-14" target="zIdspVR7MPh4aW7Ltfgc-7">
          <mxGeometry width="50" height="50" relative="1" as="geometry">
            <mxPoint x="330" y="330" as="sourcePoint" />
            <mxPoint x="380" y="280" as="targetPoint" />
          </mxGeometry>
        </mxCell>
        <mxCell id="zIdspVR7MPh4aW7Ltfgc-31" value="" style="endArrow=classic;html=1;rounded=0;fontFamily=Helvetica;fontSize=10;fontColor=#000066;curved=1;" edge="1" parent="1" source="zIdspVR7MPh4aW7Ltfgc-18" target="zIdspVR7MPh4aW7Ltfgc-7">
          <mxGeometry width="50" height="50" relative="1" as="geometry">
            <mxPoint x="330" y="260" as="sourcePoint" />
            <mxPoint x="210" y="200" as="targetPoint" />
          </mxGeometry>
        </mxCell>
        <mxCell id="zIdspVR7MPh4aW7Ltfgc-33" style="edgeStyle=orthogonalEdgeStyle;curved=1;rounded=0;orthogonalLoop=1;jettySize=auto;html=1;fontFamily=Helvetica;fontSize=10;fontColor=#000066;entryX=0.752;entryY=0.029;entryDx=0;entryDy=0;entryPerimeter=0;" edge="1" parent="1" source="zIdspVR7MPh4aW7Ltfgc-7" target="zIdspVR7MPh4aW7Ltfgc-24">
          <mxGeometry relative="1" as="geometry" />
        </mxCell>
        <mxCell id="zIdspVR7MPh4aW7Ltfgc-34" value="" style="endArrow=classic;html=1;rounded=0;fontFamily=Helvetica;fontSize=10;fontColor=#000066;curved=1;exitX=1;exitY=0.5;exitDx=0;exitDy=0;exitPerimeter=0;" edge="1" parent="1" source="zIdspVR7MPh4aW7Ltfgc-24" target="zIdspVR7MPh4aW7Ltfgc-25">
          <mxGeometry width="50" height="50" relative="1" as="geometry">
            <mxPoint x="330" y="260" as="sourcePoint" />
            <mxPoint x="380" y="210" as="targetPoint" />
          </mxGeometry>
        </mxCell>
        <mxCell id="zIdspVR7MPh4aW7Ltfgc-36" value="" style="endArrow=classic;html=1;rounded=0;fontFamily=Helvetica;fontSize=10;fontColor=#000066;curved=1;exitX=1;exitY=0.5;exitDx=0;exitDy=0;exitPerimeter=0;entryX=0;entryY=0.5;entryDx=0;entryDy=0;entryPerimeter=0;" edge="1" parent="1" source="zIdspVR7MPh4aW7Ltfgc-25" target="zIdspVR7MPh4aW7Ltfgc-26">
          <mxGeometry width="50" height="50" relative="1" as="geometry">
            <mxPoint x="330" y="260" as="sourcePoint" />
            <mxPoint x="380" y="210" as="targetPoint" />
          </mxGeometry>
        </mxCell>
        <mxCell id="zIdspVR7MPh4aW7Ltfgc-37" value="" style="endArrow=classic;html=1;rounded=0;fontFamily=Helvetica;fontSize=10;fontColor=#000066;curved=1;exitX=0.145;exitY=1;exitDx=0;exitDy=-4.35;exitPerimeter=0;entryX=1;entryY=0;entryDx=0;entryDy=15;entryPerimeter=0;" edge="1" parent="1" source="zIdspVR7MPh4aW7Ltfgc-26" target="zIdspVR7MPh4aW7Ltfgc-38">
          <mxGeometry width="50" height="50" relative="1" as="geometry">
            <mxPoint x="330" y="260" as="sourcePoint" />
            <mxPoint x="380" y="210" as="targetPoint" />
          </mxGeometry>
        </mxCell>
        <mxCell id="zIdspVR7MPh4aW7Ltfgc-38" value="solr" style="shape=cylinder3;whiteSpace=wrap;html=1;boundedLbl=1;backgroundOutline=1;size=15;strokeWidth=2;" vertex="1" parent="1">
          <mxGeometry x="307.5" y="435" width="105" height="70" as="geometry" />
        </mxCell>
        <mxCell id="zIdspVR7MPh4aW7Ltfgc-39" value="okd: essweb-scholars-graphql-prod" style="text;html=1;align=left;verticalAlign=middle;resizable=0;points=[];autosize=1;strokeColor=none;fillColor=none;fontSize=10;fontStyle=1;fontColor=#000066;" vertex="1" parent="1">
          <mxGeometry y="519" width="190" height="20" as="geometry" />
        </mxCell>
        <mxCell id="zIdspVR7MPh4aW7Ltfgc-40" value="&lt;font style=&quot;font-size: 12px&quot;&gt;&lt;b&gt;Current Scholars&lt;/b&gt;&lt;/font&gt;" style="text;html=1;strokeColor=none;fillColor=none;align=center;verticalAlign=middle;whiteSpace=wrap;rounded=0;labelBackgroundColor=none;labelBorderColor=none;fontFamily=Helvetica;fontSize=10;fontColor=#000066;" vertex="1" parent="1">
          <mxGeometry x="345" y="10" width="60" height="30" as="geometry" />
        </mxCell>
        <mxCell id="zIdspVR7MPh4aW7Ltfgc-43" value="" style="edgeStyle=orthogonalEdgeStyle;curved=1;rounded=0;orthogonalLoop=1;jettySize=auto;html=1;fontFamily=Helvetica;fontSize=12;fontColor=#000066;" edge="1" parent="1" source="zIdspVR7MPh4aW7Ltfgc-41" target="zIdspVR7MPh4aW7Ltfgc-38">
          <mxGeometry relative="1" as="geometry" />
        </mxCell>
        <mxCell id="zIdspVR7MPh4aW7Ltfgc-41" value="graphql" style="ellipse;whiteSpace=wrap;html=1;rounded=0;labelBackgroundColor=none;labelBorderColor=none;fontFamily=Helvetica;fontSize=10;fontColor=#000066;strokeWidth=2;fillColor=#FFFFFF;" vertex="1" parent="1">
          <mxGeometry x="239" y="530" width="240" height="80" as="geometry" />
        </mxCell>
        <mxCell id="zIdspVR7MPh4aW7Ltfgc-42" value="" style="endArrow=classic;html=1;rounded=0;fontFamily=Helvetica;fontSize=12;fontColor=#000066;curved=1;entryX=0.5;entryY=0;entryDx=0;entryDy=0;" edge="1" parent="1" target="zIdspVR7MPh4aW7Ltfgc-41">
          <mxGeometry width="50" height="50" relative="1" as="geometry">
            <mxPoint x="360" y="500" as="sourcePoint" />
            <mxPoint x="380" y="430" as="targetPoint" />
          </mxGeometry>
        </mxCell>
        <mxCell id="zIdspVR7MPh4aW7Ltfgc-44" value="" style="endArrow=classic;html=1;rounded=0;fontFamily=Helvetica;fontSize=12;fontColor=#000066;curved=1;exitX=0.5;exitY=1;exitDx=0;exitDy=0;" edge="1" parent="1" source="zIdspVR7MPh4aW7Ltfgc-41" target="zIdspVR7MPh4aW7Ltfgc-28">
          <mxGeometry width="50" height="50" relative="1" as="geometry">
            <mxPoint x="330" y="480" as="sourcePoint" />
            <mxPoint x="380" y="430" as="targetPoint" />
          </mxGeometry>
        </mxCell>
      </root>
    </mxGraphModel>
  </diagram>
</mxfile>
